<?xml version="1.0" encoding="UTF-8" standalone="no"?>
<svg
   xmlns:dc="http://purl.org/dc/elements/1.1/"
   xmlns:cc="http://creativecommons.org/ns#"
   xmlns:rdf="http://www.w3.org/1999/02/22-rdf-syntax-ns#"
   xmlns:svg="http://www.w3.org/2000/svg"
   xmlns="http://www.w3.org/2000/svg"
   xmlns:sodipodi="http://sodipodi.sourceforge.net/DTD/sodipodi-0.dtd"
   xmlns:inkscape="http://www.inkscape.org/namespaces/inkscape"
   width="210mm"
   height="297mm"
   version="1.1"
   viewBox="0 0 210 297"
   id="svg93"
   sodipodi:docname="bc.svg"
   inkscape:version="1.0.2 (e86c870879, 2021-01-15)">
  <defs
     id="defs97" />
  <sodipodi:namedview
     pagecolor="#ffffff"
     bordercolor="#666666"
     borderopacity="1"
     objecttolerance="10"
     gridtolerance="10"
     guidetolerance="10"
     inkscape:pageopacity="0"
     inkscape:pageshadow="2"
     inkscape:window-width="1920"
     inkscape:window-height="947"
     id="namedview95"
     showgrid="false"
     inkscape:zoom="0.3532232"
     inkscape:cx="663.88453"
     inkscape:cy="478.10907"
     inkscape:window-x="0"
     inkscape:window-y="27"
     inkscape:window-maximized="1"
     inkscape:current-layer="svg93" />
  <metadata
     id="metadata89">
    <rdf:RDF>
      <cc:Work
         rdf:about="">
        <dc:format>image/svg+xml</dc:format>
        <dc:type
           rdf:resource="http://purl.org/dc/dcmitype/StillImage" />
        <dc:title />
      </cc:Work>
    </rdf:RDF>
  </metadata>
  <rect
     style="fill:#101010;fill-opacity:1;stroke-width:0.48441"
     id="rect99"
     width="217.96092"
     height="244.95763"
     x="-3.3733571"
     y="28.131868" />
  <path
     d="m 66.926,125.14 35.191,-19.655 V 68.532 a 17.687,17.687 0 0 1 -10.46,-6.0535 l -56.378,32.624 c 0.67045,1.8773 1.0344,3.8888 1.0344,5.996 0,1.7624 -0.24906,3.4482 -0.72794,5.0573 z M 88.669,57.364 a 17.683,17.683 0 0 1 -1.1302,-6.2259 c 0,-4.8849 1.9731,-9.3101 5.1723,-12.509 3.1991,-3.1991 7.6243,-5.1722 12.509,-5.1722 4.8849,0 9.3101,1.9731 12.509,5.1722 a 17.634,17.634 0 0 1 5.1723,12.509 c 0,2.1456 -0.38302,4.1953 -1.0728,6.0918 l 56.646,32.758 c 0.40257,-0.47858 0.80462,-0.95782 1.2452,-1.3984 a 17.634,17.634 0 0 1 12.509,-5.1723 c 4.8849,0 9.3101,1.9731 12.509,5.1723 a 17.634,17.634 0 0 1 5.1722,12.509 c 0,4.8849 -1.9731,9.2909 -5.1722,12.49 a 17.613,17.613 0 0 1 -10.191,5.019 v 64.96 c 3.9654,0.51695 7.5093,2.3371 10.191,5.019 3.1991,3.1991 5.1722,7.6243 5.1722,12.49 a 17.666,17.666 0 0 1 -17.682,17.682 17.634,17.634 0 0 1 -13.697,-6.4941 l -56.723,32.796 c 0.69001,1.8965 1.0727,3.9463 1.0727,6.0918 0,4.885 -1.9731,9.3101 -5.1722,12.509 a 17.634,17.634 0 0 1 -12.509,5.1722 c -4.8849,0 -9.3101,-1.9731 -12.509,-5.1722 -3.1991,-3.1992 -5.1723,-7.6243 -5.1723,-12.509 0,-2.1839 0.40256,-4.2911 1.1303,-6.2259 l -56.359,-32.585 a 17.634,17.634 0 0 1 -13.659,6.4366 c -4.8849,0 -9.3101,-1.9731 -12.509,-5.1722 -3.18,-3.1992 -5.1531,-7.6244 -5.1531,-12.509 0,-4.8849 1.9731,-9.2909 5.1722,-12.49 a 17.705,17.705 0 0 1 10.057,-5.019 v -64.998 a 17.586,17.586 0 0 1 -10.057,-5.019 17.555,17.555 0 0 1 -5.1722,-12.49 c 0,-4.8849 1.9731,-9.3101 5.1722,-12.509 a 17.634,17.634 0 0 1 12.509,-5.1722 17.634,17.634 0 0 1 13.716,6.5132 z m 30.191,4.9998 a 17.609,17.609 0 0 1 -10.632,6.1876 v 36.934 l 35.114,20.344 32.279,-18.658 c -0.70883,-1.8965 -1.0727,-3.9654 -1.0727,-6.0918 0,-2.0689 0.36418,-4.0803 1.0152,-5.9194 z m 70.285,56.129 a 17.546,17.546 0 0 1 -9.425,-4.9041 c -0.36419,-0.36419 -0.70882,-0.72794 -1.0344,-1.1302 l -32.221,18.62 v 39.807 l 32.356,18.678 c 0.28743,-0.32581 0.57487,-0.65163 0.88113,-0.9579 a 17.613,17.613 0 0 1 9.425,-4.904 v -65.209 z m -13.544,88.637 c -0.69,-1.8773 -1.0536,-3.908 -1.0536,-6.0152 0,-2.2221 0.40255,-4.3485 1.1685,-6.3216 l -31.302,-18.065 -36.187,21.034 v 35.995 a 17.609,17.609 0 0 1 10.632,6.1876 z m -83.944,32.681 a 17.687,17.687 0 0 1 10.46,-6.0535 v -36.168 l -36.321,-21.072 -30.823,17.796 c 0.8621,2.0881 1.3602,4.3869 1.3602,6.8006 0,2.1456 -0.38301,4.1953 -1.0728,6.0918 z m -70.075,-56.148 c 3.6972,0.61325 7.0113,2.3946 9.5591,4.9424 0.19187,0.19187 0.36419,0.38302 0.53651,0.57489 l 31.398,-18.122 v -41.129 l -30.229,-18.314 c -0.51696,0.70882 -1.092,1.3601 -1.7049,1.9731 a 17.729,17.729 0 0 1 -9.5591,4.9424 z m -2.9118,-71.013 c 0.07675,0 0.15349,-0.0218 0.23024,-0.0218 h 0.1535 a 11.494,11.494 0 0 0 7.7775,-3.3716 11.538,11.538 0 0 0 3.3908,-8.1798 c 0,-3.1991 -1.3027,-6.0918 -3.3908,-8.1799 -2.088,-2.0881 -4.9807,-3.3907 -8.1798,-3.3907 -3.1991,0 -6.0918,1.3026 -8.1799,3.3907 a 11.538,11.538 0 0 0 -3.3907,8.1799 c 0,3.1992 1.3027,6.0918 3.3907,8.1798 a 11.551,11.551 0 0 0 8.199,3.3907 z m 94.71,130.36 a 11.538,11.538 0 0 0 -8.1798,-3.3907 c -3.1992,0 -6.0918,1.3026 -8.1799,3.3907 -2.0881,2.0881 -3.3907,4.9807 -3.3907,8.1798 0,3.1992 1.3026,6.0918 3.3907,8.1799 2.088,2.0881 4.9807,3.3907 8.1799,3.3907 3.1991,0 6.0918,-1.3026 8.1798,-3.3907 2.0881,-2.088 3.3907,-4.9807 3.3907,-8.1799 0,-3.1991 -1.2835,-6.0918 -3.3907,-8.1798 z m 0,-200.05 a 11.538,11.538 0 0 0 -8.1798,-3.3907 c -3.1992,0 -6.0918,1.3027 -8.1799,3.3907 -2.0881,2.0881 -3.3907,4.9807 -3.3907,8.1798 0,3.1992 1.3026,6.0918 3.3907,8.1799 a 11.538,11.538 0 0 0 8.1799,3.3908 c 3.1991,0 6.0918,-1.3027 8.1798,-3.3908 a 11.538,11.538 0 0 0 3.3907,-8.1799 c 0,-3.1991 -1.2835,-6.0918 -3.3907,-8.1798 z m 87.009,149.98 a 11.538,11.538 0 0 0 -8.1799,-3.3907 c -3.1991,0 -6.0918,1.3027 -8.1798,3.3907 a 11.538,11.538 0 0 0 -3.3907,8.1799 c 0,3.1992 1.3027,6.0918 3.3907,8.1798 a 11.538,11.538 0 0 0 8.1798,3.3908 c 3.1992,0 6.0918,-1.3027 8.1799,-3.3908 a 11.538,11.538 0 0 0 3.3908,-8.1798 c 0,-3.1991 -1.2835,-6.0918 -3.3908,-8.1799 z m -173.56,0 c -2.088,-2.088 -4.9807,-3.3907 -8.1798,-3.3907 -3.1991,0 -6.0918,1.3027 -8.1799,3.3907 a 11.538,11.538 0 0 0 -3.3907,8.1799 c 0,3.1992 1.3027,6.0918 3.3907,8.1798 2.0881,2.0881 4.9807,3.3908 8.1799,3.3908 3.1992,0 6.0918,-1.3027 8.1798,-3.3908 a 11.538,11.538 0 0 0 3.3908,-8.1798 11.618,11.618 0 0 0 -3.3908,-8.1799 z m 155.07,-86.626 c 0.15349,0.1535 0.26789,0.34465 0.38301,0.53652 0.11512,0.19185 0.19186,0.383 0.26789,0.59369 0.44094,0.65163 0.9387,1.2643 1.4751,1.8199 a 11.538,11.538 0 0 0 8.1798,3.3907 c 3.1992,0 6.0918,-1.3026 8.1799,-3.3907 a 11.538,11.538 0 0 0 3.3908,-8.1799 c 0,-3.1991 -1.3027,-6.0918 -3.3908,-8.1799 a 11.538,11.538 0 0 0 -8.1799,-3.3907 c -3.1991,0 -6.0918,1.3026 -8.1798,3.3907 a 11.538,11.538 0 0 0 -3.3907,8.1799 c 0.0218,1.8965 0.47931,3.659 1.2644,5.2297 z m -113.1,64.098 a 3.2317,3.2317 0 0 1 0.82372,1.6858 l 32.815,19.291 v -38.083 l -33.639,-20.019 z m 71.952,-36.608 -32.585,19.521 v 38.102 l 32.585,-19.252 z m -35.593,-23.735 -31.8,19.022 31.972,19.252 31.053,-18.85 z"
     clip-rule="evenodd"
     fill="#ffffff"
     fill-rule="evenodd"
     stroke-width="1.9156"
     id="path91"
     style="fill:#0000ff" />
</svg>
